<svg id="Layer_1" data-name="Layer 1" xmlns="http://www.w3.org/2000/svg" width="2.08in" height="0.78in" viewBox="0 0 150 56.29"><path d="M19.65,6.9A6,6,0,0,0,15.07,5C12.82,5,11.15,6.22,10.83,8c-.24,1.36.3,2.29,1.52,3.3.38.38,2.49,1.91,3,2.25,2.45,1.86,4.35,3.81,3.6,8A11.31,11.31,0,0,1,15.5,28,12.59,12.59,0,0,1,6.55,31,14.25,14.25,0,0,1,.19,29.67L0,29.25c.2-.9.45-1.83.66-2.76s.37-1.61.51-2.41L1.55,24A6.8,6.8,0,0,0,6.64,26a4.56,4.56,0,0,0,4.83-3.68c.33-1.86-.72-2.88-2.59-4.28L7.25,16.85c-2-1.57-4.54-3.52-3.71-8.17A10.22,10.22,0,0,1,7.12,2.37,11.88,11.88,0,0,1,14.84,0a13.56,13.56,0,0,1,6.32,1.36l.11.34c-.24.88-.48,1.77-.68,2.66L20,6.77Z"/><path d="M31.47,18.51c-1.9.27-4.89.76-5.52,4.32-.32,1.85.44,3,1.85,3a3.83,3.83,0,0,0,2.58-1.19ZM29.78,28.6a8.8,8.8,0,0,1-5.63,2.24c-3.31,0-5.45-2.55-4.62-7.26,1.17-6.65,7.24-8.14,12.61-9.11.26-1.5.56-3.17-2.57-3.17a11.32,11.32,0,0,0-5.94,1.76l-.28-.18c.49-2,.63-2.59,1-4.44l.33-.35a22.28,22.28,0,0,1,7.74-1.46c1.72,0,5.15.27,6.28,3.08.66,1.72.31,3.75-.42,7.36l-.65,3.47a77.4,77.4,0,0,0-1.35,9.64l-.35.26c-3,0-3.61,0-6.18.09l-.27-.22Z"/><path d="M46,30.44c-2.9,0-3.73,0-6.85.13l-.17-.26c.57-2.73,1.18-5.68,2.28-11.93.71-4,.84-4.77,1.5-8.78.69-4.39.82-5.89,1.06-8l.27-.27c3-.48,4.12-.66,7-1.23l.22.26c-.49,2.56-.78,4.19-1.42,7.84-.26,1.45-1.38,8-2.36,13.84-.59,3.87-.89,6-1.17,8.14Z"/><path d="M63.23,12.88c0-.44-.3-1.8-1.71-1.8S59.44,12.4,59.12,13a19.57,19.57,0,0,0-1.61,5.37c-1.22,7-.1,8.1,1.35,8.1a2.31,2.31,0,0,0,1.72-.8C61.68,24.41,62.5,21,62.86,19a22.64,22.64,0,0,0,.37-6.08m5.5-3.74c2.39,2.95,1.62,7.79,1.23,10-.33,1.89-1.12,5.86-4,8.72A10.92,10.92,0,0,1,58,30.93c-1.19,0-4.65-.09-6.63-2.86s-1.35-7.31-1-9.34c.28-1.62,1.16-6.33,4.42-9.32a11.48,11.48,0,0,1,7.75-2.78c1,0,4.21,0,6.2,2.51"/><path d="M81.46,30.31c.52-2.68,1-5.63,1.42-7.79.45-2.55,1-5.54,1.21-7.61.1-.84.3-2.73-1.46-2.73A3.86,3.86,0,0,0,80,13.59a5.19,5.19,0,0,0-.2.88c-.32,1.54-2,12.23-2.47,15.71l-.31.26c-2.94,0-3.64,0-6.7.09l-.23-.22c.91-4.14,1.45-7.17,1.77-9,.82-4.62,1.46-9,1.91-13.29L74,7.73c3.2-.44,4-.57,7-1.19l.26.27c-.37,1.58-.39,1.72-.61,2.73,1.79-1.41,3.84-2.86,6.44-2.86a4.72,4.72,0,0,1,2.37.57c2.5,1.54,2,4.79,1,10.47L90,20.58c-1,6.34-1.11,7.05-1.43,9.6l-.31.26c-3.08,0-4,0-6.63.13Z"/><path d="M99.15,25.82a2.47,2.47,0,0,0,.61.05h.35c4-.4,5-5.64,5.34-7.79a11.75,11.75,0,0,0,.07-4.67,1.94,1.94,0,0,0-1.83-1.58A3.78,3.78,0,0,0,101.32,13c-.81,4.62-1.14,6.73-2.17,12.8m3.09-19C102,7.82,102,8,101.81,9a8.84,8.84,0,0,1,5.51-2.33A4.9,4.9,0,0,1,112,9.76c1.12,2.37.86,5.64.48,7.79-.55,3.12-2.19,9.9-8.78,12.32a14.13,14.13,0,0,1-5.53.66c-.52,3.21-.66,5.08-.89,6.84l-.31.27c-.87,0-1.74-.09-2.58-.09-1.37,0-2.53.09-4.13.17l-.21-.26c.75-3.53,1-5,1.61-8.43,1.23-7,2.47-14,3.08-21L95,7.78c3.29-.44,4.16-.62,6.94-1.19Z"/><path d="M124.25,18.51c-1.89.27-4.88.76-5.51,4.32-.33,1.85.43,3,1.84,3a3.86,3.86,0,0,0,2.59-1.19ZM122.56,28.6a8.8,8.8,0,0,1-5.63,2.24c-3.3,0-5.45-2.55-4.62-7.26,1.18-6.65,7.25-8.14,12.61-9.11.27-1.5.56-3.17-2.56-3.17a11.33,11.33,0,0,0-6,1.76l-.27-.18c.48-2,.63-2.59,1-4.44l.33-.35a22.25,22.25,0,0,1,7.74-1.46c1.71,0,5.14.27,6.27,3.08.67,1.72.31,3.75-.41,7.36l-.66,3.47a79.32,79.32,0,0,0-1.35,9.64l-.35.26c-2.94,0-3.61,0-6.18.09l-.27-.22Z"/><path d="M132.22,24.77a5.52,5.52,0,0,0,4.08,1.8c2.47,0,3.3-1.5,3.46-2.37.25-1.46-.73-2.12-1.8-2.82-2.91-1.94-5.07-3.39-4.36-7.44a8.36,8.36,0,0,1,3.25-5.46,10.85,10.85,0,0,1,6.57-1.85,13.87,13.87,0,0,1,5.05.84l.12.31c-.14.79-.32,1.58-.51,2.37l-.39,2.25-.32.09a4.47,4.47,0,0,0-3.69-1.59c-2.2,0-3.11,1.19-3.29,2.2-.25,1.46.7,2,2.75,3.39s4.29,2.9,3.59,6.87a9.07,9.07,0,0,1-3.2,5.41,10.05,10.05,0,0,1-6.76,2.16,13.51,13.51,0,0,1-5.71-1.1l-.15-.4c.19-.83.38-1.67.54-2.55.16-.66.28-1.32.39-2Z"/><path d="M147.62,30.31h.43v-.76h.43c.21,0,.29.08.33.29a2.23,2.23,0,0,0,.06.47h.43a1.22,1.22,0,0,1-.08-.47c0-.2-.07-.4-.28-.46h0a.49.49,0,0,0,.31-.48.54.54,0,0,0-.58-.55h-1Zm.43-1.62h.47c.19,0,.3.08.3.26a.26.26,0,0,1-.3.29h-.47Z"/><path d="M147,29.35a1.39,1.39,0,0,1,2.78,0,1.39,1.39,0,1,1-2.78,0m-.22,0a1.61,1.61,0,1,0,1.61-1.6,1.6,1.6,0,0,0-1.61,1.6"/><rect x="3.84" y="43.92" width="1.71" height="12.15"/><path d="M12.12,56a4.25,4.25,0,0,1-1.53.28,2,2,0,0,1-1.78-.87,4.37,4.37,0,0,1-.42-2.5V49.08H7.15V47.72H8.39v-2.5h1.69v2.5h2v1.36h-2v3.79a3.34,3.34,0,0,0,.21,1.53.88.88,0,0,0,.86.42,2.09,2.09,0,0,0,.87-.19Z"/><polygon points="16.68 43.92 15.12 47.69 13.78 47.69 14.96 43.92 16.68 43.92"/><path d="M22.21,55.53a3.58,3.58,0,0,1-2.32.74,4,4,0,0,1-3.26-1.5l.81-1A3.41,3.41,0,0,0,19.91,55c.77,0,1.6-.28,1.6-1.2s-1.32-1.19-1.89-1.39A6.19,6.19,0,0,1,18.48,52a2.15,2.15,0,0,1-1.32-2c0-1.55,1.34-2.39,2.82-2.39a3.67,3.67,0,0,1,2.85,1.09l-.7,1a3.1,3.1,0,0,0-2.12-.9c-.81,0-1.34.35-1.34,1s.81,1,1.64,1.25c.46.16.78.27,1.13.41a3.22,3.22,0,0,1,1,.6,2.06,2.06,0,0,1,.67,1.54,2.38,2.38,0,0,1-.87,1.91"/><path d="M39.09,54.31a6.63,6.63,0,0,1-5.17,2A6,6,0,0,1,27.73,50a6,6,0,0,1,6.18-6.26,6.1,6.1,0,0,1,4.91,2.12l-1.16,1.07a4.68,4.68,0,0,0-3.75-1.72c-2.5,0-4.42,1.79-4.42,4.79A4.44,4.44,0,0,0,34,54.79c2.52,0,3.42-1.11,3.42-1.11V51H34.15V49.59h4.94Z"/><path d="M45.27,48.92A3,3,0,1,0,48,51.86a2.73,2.73,0,0,0-2.71-2.94m0,7.35a4.36,4.36,0,1,1,4.42-4.35,4.25,4.25,0,0,1-4.42,4.35"/><path d="M55.32,48.92A3,3,0,1,0,58,51.86a2.73,2.73,0,0,0-2.72-2.94m0,7.35a4.36,4.36,0,1,1,4.42-4.35,4.25,4.25,0,0,1-4.42,4.35"/><path d="M65.33,48.92a2.66,2.66,0,0,0-2.66,2.94,2.68,2.68,0,1,0,5.32,0,2.66,2.66,0,0,0-2.66-2.94m4.28,7.15H68V54.73h0A3.4,3.4,0,0,1,65,56.27a4.06,4.06,0,0,1-4.07-4.39,4,4,0,0,1,4-4.33A3.39,3.39,0,0,1,67.9,49h0V43.92h1.68Z"/><polygon points="85.4 43.92 81.9 53.31 81.86 53.31 78.36 43.92 76.25 43.92 75.15 56.07 76.84 56.07 77.62 46.47 77.67 46.47 81.39 56.18 82.36 56.18 86.07 46.47 86.12 46.47 86.92 56.07 88.61 56.07 87.5 43.92 85.4 43.92"/><path d="M96.6,51.16a2.42,2.42,0,0,0-2.41-2.4,2.46,2.46,0,0,0-2.46,2.4Zm1.55,1.13H91.71A2.58,2.58,0,0,0,94.4,55a4.68,4.68,0,0,0,2.77-1l.7,1a4.94,4.94,0,0,1-3.68,1.32A4.06,4.06,0,0,1,90,51.88a4.15,4.15,0,0,1,4.24-4.33,3.83,3.83,0,0,1,4,4,6.62,6.62,0,0,1-.06.74"/><path d="M103.7,48.92A2.66,2.66,0,0,0,101,51.86a2.68,2.68,0,1,0,5.32,0,2.66,2.66,0,0,0-2.66-2.94M108,56.07h-1.62V54.73h0a3.4,3.4,0,0,1-3,1.54c-2.48,0-4.06-1.91-4.06-4.39a4,4,0,0,1,4-4.33A3.39,3.39,0,0,1,106.27,49h0V43.92H108Z"/><path d="M112.15,56.07h-1.69V47.71h1.69ZM111.31,46a1,1,0,1,1,1.09-1,1,1,0,0,1-1.09,1"/><path d="M121.56,55A4.45,4.45,0,0,1,114,51.9a4.22,4.22,0,0,1,4.27-4.35,4.08,4.08,0,0,1,3.25,1.2l-.6,1.23a3.32,3.32,0,0,0-2.5-1,2.94,2.94,0,0,0,0,5.86,3.5,3.5,0,0,0,2.54-1Z"/><path d="M124.67,56.07H123V47.71h1.69ZM123.83,46a1,1,0,1,1,1.09-1,1,1,0,0,1-1.09,1"/><path d="M134.34,56.07h-1.69V51.41c0-1.41-.24-2.47-1.74-2.47s-2.15,1.32-2.15,2.92v4.21h-1.69V47.71h1.69l0,1.32h.06a2.81,2.81,0,0,1,2.55-1.48c2.38,0,3,1.57,3,3.57Z"/><path d="M142.64,51.16a2.42,2.42,0,0,0-2.41-2.4,2.46,2.46,0,0,0-2.47,2.4Zm1.55,1.13h-6.45a2.59,2.59,0,0,0,2.7,2.66,4.64,4.64,0,0,0,2.76-1l.71,1a5,5,0,0,1-3.68,1.32,4.06,4.06,0,0,1-4.2-4.39,4.15,4.15,0,0,1,4.25-4.33,3.82,3.82,0,0,1,4,4c0,.31-.05.74-.05.74"/><path d="M147.23,56.25a1.1,1.1,0,1,1,1.17-1.09,1.07,1.07,0,0,1-1.17,1.09"/></svg>