<svg data-name="Layer 1" xmlns="http://www.w3.org/2000/svg" width="2.08in" height="74.88" viewBox="0 0 150 56.29"><path d="M19.65 6.9A6 6 0 0015.07 5c-2.25 0-3.92 1.22-4.24 3-.24 1.36.3 2.29 1.52 3.3.38.38 2.49 1.91 3 2.25 2.45 1.86 4.35 3.81 3.6 8A11.31 11.31 0 0115.5 28a12.59 12.59 0 01-8.95 3 14.25 14.25 0 01-6.36-1.33L0 29.25c.2-.9.45-1.83.66-2.76s.37-1.61.51-2.41l.38-.08a6.8 6.8 0 005.09 2 4.56 4.56 0 004.83-3.68c.33-1.86-.72-2.88-2.59-4.28l-1.63-1.19c-2-1.57-4.54-3.52-3.71-8.17a10.22 10.22 0 013.58-6.31A11.88 11.88 0 0114.84 0a13.56 13.56 0 016.32 1.36l.11.34c-.24.88-.48 1.77-.68 2.66L20 6.77zm11.82 11.61c-1.9.27-4.89.76-5.52 4.32-.32 1.85.44 3 1.85 3a3.83 3.83 0 002.58-1.19zM29.78 28.6a8.8 8.8 0 01-5.63 2.24c-3.31 0-5.45-2.55-4.62-7.26 1.17-6.65 7.24-8.14 12.61-9.11.26-1.5.56-3.17-2.57-3.17a11.32 11.32 0 00-5.94 1.76l-.28-.18c.49-2 .63-2.59 1-4.44l.33-.35a22.28 22.28 0 017.74-1.46c1.72 0 5.15.27 6.28 3.08.66 1.72.31 3.75-.42 7.36l-.65 3.47a77.4 77.4 0 00-1.35 9.64l-.35.26c-3 0-3.61 0-6.18.09l-.27-.22zM46 30.44c-2.9 0-3.73 0-6.85.13l-.17-.26c.57-2.73 1.18-5.68 2.28-11.93.71-4 .84-4.77 1.5-8.78.69-4.39.82-5.89 1.06-8l.27-.27c3-.48 4.12-.66 7-1.23l.22.26c-.49 2.56-.78 4.19-1.42 7.84-.26 1.45-1.38 8-2.36 13.84-.59 3.87-.89 6-1.17 8.14zm17.23-17.56c0-.44-.3-1.8-1.71-1.8s-2.08 1.32-2.4 1.92a19.57 19.57 0 00-1.61 5.37c-1.22 7-.1 8.1 1.35 8.1a2.31 2.31 0 001.72-.8c1.1-1.26 1.92-4.67 2.28-6.67a22.64 22.64 0 00.37-6.08m5.5-3.74c2.39 2.95 1.62 7.79 1.23 10-.33 1.89-1.12 5.86-4 8.72A10.92 10.92 0 0158 30.93c-1.19 0-4.65-.09-6.63-2.86s-1.35-7.31-1-9.34c.28-1.62 1.16-6.33 4.42-9.32a11.48 11.48 0 017.75-2.78c1 0 4.21 0 6.2 2.51m12.72 21.17c.52-2.68 1-5.63 1.42-7.79.45-2.55 1-5.54 1.21-7.61.1-.84.3-2.73-1.46-2.73A3.86 3.86 0 0080 13.59a5.19 5.19 0 00-.2.88c-.32 1.54-2 12.23-2.47 15.71l-.31.26c-2.94 0-3.64 0-6.7.09l-.23-.22c.91-4.14 1.45-7.17 1.77-9 .82-4.62 1.46-9 1.91-13.29l.23-.29c3.2-.44 4-.57 7-1.19l.26.27c-.37 1.58-.39 1.72-.61 2.73 1.79-1.41 3.84-2.86 6.44-2.86a4.72 4.72 0 012.37.57c2.5 1.54 2 4.79 1 10.47L90 20.58c-1 6.34-1.11 7.05-1.43 9.6l-.31.26c-3.08 0-4 0-6.63.13zm17.69-4.49a2.47 2.47 0 00.61.05h.35c4-.4 5-5.64 5.34-7.79a11.75 11.75 0 00.07-4.67 1.94 1.94 0 00-1.83-1.58 3.78 3.78 0 00-2.37 1.17c-.81 4.62-1.14 6.73-2.17 12.8m3.09-19C102 7.82 102 8 101.81 9a8.84 8.84 0 015.51-2.33A4.9 4.9 0 01112 9.76c1.12 2.37.86 5.64.48 7.79-.55 3.12-2.19 9.9-8.78 12.32a14.13 14.13 0 01-5.53.66c-.52 3.21-.66 5.08-.89 6.84l-.31.27c-.87 0-1.74-.09-2.58-.09-1.37 0-2.53.09-4.13.17l-.21-.26c.75-3.53 1-5 1.61-8.43 1.23-7 2.47-14 3.08-21l.26-.25c3.29-.44 4.16-.62 6.94-1.19zm22.01 11.71c-1.89.27-4.88.76-5.51 4.32-.33 1.85.43 3 1.84 3a3.86 3.86 0 002.59-1.19zm-1.69 10.09a8.8 8.8 0 01-5.63 2.24c-3.3 0-5.45-2.55-4.62-7.26 1.18-6.65 7.25-8.14 12.61-9.11.27-1.5.56-3.17-2.56-3.17a11.33 11.33 0 00-6 1.76l-.27-.18c.48-2 .63-2.59 1-4.44l.33-.35a22.25 22.25 0 017.74-1.46c1.71 0 5.14.27 6.27 3.08.67 1.72.31 3.75-.41 7.36l-.66 3.47a79.32 79.32 0 00-1.35 9.64l-.35.26c-2.94 0-3.61 0-6.18.09l-.27-.22zm9.66-3.83a5.52 5.52 0 004.08 1.8c2.47 0 3.3-1.5 3.46-2.37.25-1.46-.73-2.12-1.8-2.82-2.91-1.94-5.07-3.39-4.36-7.44a8.36 8.36 0 013.25-5.46 10.85 10.85 0 016.57-1.85 13.87 13.87 0 015.05.84l.12.31c-.14.79-.32 1.58-.51 2.37l-.39 2.25-.32.09a4.47 4.47 0 00-3.69-1.59c-2.2 0-3.11 1.19-3.29 2.2-.25 1.46.7 2 2.75 3.39s4.29 2.9 3.59 6.87a9.07 9.07 0 01-3.2 5.41 10.05 10.05 0 01-6.76 2.16 13.51 13.51 0 01-5.71-1.1l-.15-.4c.19-.83.38-1.67.54-2.55.16-.66.28-1.32.39-2zm15.4 5.54h.43v-.76h.43c.21 0 .29.08.33.29a2.23 2.23 0 00.06.47h.43a1.22 1.22 0 01-.08-.47c0-.2-.07-.4-.28-.46a.49.49 0 00.31-.48.54.54 0 00-.58-.55h-1zm.43-1.62h.47c.19 0 .3.08.3.26a.26.26 0 01-.3.29h-.47z"/><path d="M147 29.35a1.39 1.39 0 012.78 0 1.39 1.39 0 11-2.78 0m-.22 0a1.61 1.61 0 101.61-1.6 1.6 1.6 0 00-1.61 1.6M3.84 43.92h1.71v12.15H3.84zM12.12 56a4.25 4.25 0 01-1.53.28 2 2 0 01-1.78-.87 4.37 4.37 0 01-.42-2.5v-3.83H7.15v-1.36h1.24v-2.5h1.69v2.5h2v1.36h-2v3.79a3.34 3.34 0 00.21 1.53.88.88 0 00.86.42 2.09 2.09 0 00.87-.19zm4.56-12.08l-1.56 3.77h-1.34l1.18-3.77h1.72zm5.53 11.61a3.58 3.58 0 01-2.32.74 4 4 0 01-3.26-1.5l.81-1A3.41 3.41 0 0019.91 55c.77 0 1.6-.28 1.6-1.2s-1.32-1.19-1.89-1.39a6.19 6.19 0 01-1.14-.41 2.15 2.15 0 01-1.32-2c0-1.55 1.34-2.39 2.82-2.39a3.67 3.67 0 012.85 1.09l-.7 1a3.1 3.1 0 00-2.12-.9c-.81 0-1.34.35-1.34 1s.81 1 1.64 1.25c.46.16.78.27 1.13.41a3.22 3.22 0 011 .6 2.06 2.06 0 01.67 1.54 2.38 2.38 0 01-.87 1.91m16.85-1.2a6.63 6.63 0 01-5.17 2A6 6 0 0127.73 50a6 6 0 016.18-6.26 6.1 6.1 0 014.91 2.12l-1.16 1.07a4.68 4.68 0 00-3.75-1.72c-2.5 0-4.42 1.79-4.42 4.79A4.44 4.44 0 0034 54.79c2.52 0 3.42-1.11 3.42-1.11V51h-3.27v-1.41h4.94zm6.18-5.39A3 3 0 1048 51.86a2.73 2.73 0 00-2.71-2.94m0 7.35a4.36 4.36 0 114.42-4.35 4.25 4.25 0 01-4.42 4.35m10.03-7.35A3 3 0 1058 51.86a2.73 2.73 0 00-2.72-2.94m0 7.35a4.36 4.36 0 114.42-4.35 4.25 4.25 0 01-4.42 4.35m10.05-7.35a2.66 2.66 0 00-2.66 2.94 2.68 2.68 0 105.32 0 2.66 2.66 0 00-2.66-2.94m4.28 7.15H68v-1.34a3.4 3.4 0 01-3 1.54 4.06 4.06 0 01-4.07-4.39 4 4 0 014-4.33A3.39 3.39 0 0167.9 49v-5.08h1.68zM85.4 43.92l-3.5 9.39h-.04l-3.5-9.39h-2.11l-1.1 12.15h1.69l.78-9.6h.05l3.72 9.71h.97l3.71-9.71h.05l.8 9.6h1.69L87.5 43.92h-2.1zm11.2 7.24a2.42 2.42 0 00-2.41-2.4 2.46 2.46 0 00-2.46 2.4zm1.55 1.13h-6.44A2.58 2.58 0 0094.4 55a4.68 4.68 0 002.77-1l.7 1a4.94 4.94 0 01-3.68 1.32A4.06 4.06 0 0190 51.88a4.15 4.15 0 014.24-4.33 3.83 3.83 0 014 4 6.62 6.62 0 01-.06.74m5.52-3.37a2.66 2.66 0 00-2.7 2.94 2.68 2.68 0 105.32 0 2.66 2.66 0 00-2.66-2.94m4.34 7.15h-1.62v-1.34a3.4 3.4 0 01-3 1.54c-2.48 0-4.06-1.91-4.06-4.39a4 4 0 014-4.33 3.39 3.39 0 012.95 1.45v-5.08H108zm4.15 0h-1.69v-8.36h1.69zM111.31 46a1 1 0 111.09-1 1 1 0 01-1.09 1m10.25 9a4.45 4.45 0 01-7.56-3.1 4.22 4.22 0 014.27-4.35 4.08 4.08 0 013.25 1.2l-.6 1.23a3.32 3.32 0 00-2.5-1 2.94 2.94 0 000 5.86 3.5 3.5 0 002.54-1zm3.11 1.07H123v-8.36h1.69zM123.83 46a1 1 0 111.09-1 1 1 0 01-1.09 1m10.51 10.07h-1.69v-4.66c0-1.41-.24-2.47-1.74-2.47s-2.15 1.32-2.15 2.92v4.21h-1.69v-8.36h1.69v1.32h.06a2.81 2.81 0 012.55-1.48c2.38 0 3 1.57 3 3.57zm8.3-4.91a2.42 2.42 0 00-2.41-2.4 2.46 2.46 0 00-2.47 2.4zm1.55 1.13h-6.45a2.59 2.59 0 002.7 2.66 4.64 4.64 0 002.76-1l.71 1a5 5 0 01-3.68 1.32 4.06 4.06 0 01-4.2-4.39 4.15 4.15 0 014.25-4.33 3.82 3.82 0 014 4c0 .31-.05.74-.05.74m3 3.96a1.1 1.1 0 111.17-1.09 1.07 1.07 0 01-1.17 1.09"/></svg>